Coordinates
version=1
nRows=10
nColumns=40
inDegrees=yes

Units are S.I. units (second, meters, Newtons, ...)
Angles are in degrees.

endheader
time	pelvis_tilt	pelvis_list	pelvis_rotation	pelvis_tx	pelvis_ty	pelvis_tz	hip_flexion_r	hip_adduction_r	hip_rotation_r	knee_angle_r	knee_angle_r_beta	ankle_angle_r	subtalar_angle_r	mtp_angle_r	hip_flexion_l	hip_adduction_l	hip_rotation_l	knee_angle_l	knee_angle_l_beta	ankle_angle_l	subtalar_angle_l	mtp_angle_l	lumbar_extension	lumbar_bending	lumbar_rotation	arm_flex_r	arm_add_r	arm_rot_r	elbow_flex_r	pro_sup_r	wrist_flex_r	wrist_dev_r	arm_flex_l	arm_add_l	arm_rot_l	elbow_flex_l	pro_sup_l	wrist_flex_l	wrist_dev_l
      0.00000000	    -21.11835056	      5.15923581	    -17.86178166	     -2.12607764	      0.86712056	     -0.06727014	     25.58962714	      1.44227096	     -5.26931132	    -38.72649802	     -0.67590490	     19.09321918	     -9.18854056	    -12.23907179	     57.36312456	      5.85909087	      5.61217850	    -94.56353796	     -1.65044509	     -1.70356351	     13.30223319	     -5.84956401	     -3.41708832	      2.43835202	     12.75428897	     18.76330290	    -20.18393327	     11.98784971	    112.03148308	     89.95437384	      0.00000000	      0.00000000	    -50.54891574	     63.29214903	     14.13200529	     66.47248866	     89.95437384	      0.00000000	      0.00000000
      0.01000000	    -20.44981868	      6.00286808	    -17.03063970	     -2.08498869	      0.87281717	     -0.06551878	     20.65966476	     -0.82743900	     -5.80175076	    -35.14946826	     -0.61347395	     17.52715328	     -7.52666360	    -12.67131056	     59.17440582	      4.41491024	      4.81460959	    -90.68767417	     -1.58279851	     -1.85309606	     11.66853755	     -6.16526295	     -3.46858464	      0.91719522	     12.64611021	     20.83026749	    -20.40390102	     13.50754220	    115.20400027	     89.95437384	      0.00000000	      0.00000000	    -53.52120024	     62.23082497	     17.18527704	     70.31029984	     89.95437384	      0.00000000	      0.00000000
      0.02000000	    -19.50084735	      6.50896875	    -15.97505631	     -2.04272915	      0.88021528	     -0.06288821	     14.96938219	     -2.86503214	     -7.05274697	    -30.85624285	     -0.53854303	     14.66241904	     -5.33835359	    -12.86761808	     59.95670328	      3.15887635	      4.14388787	    -85.83166496	     -1.49804516	     -2.31975812	     10.82225040	     -6.68033318	     -3.91084041	     -0.47648131	     12.21030404	     22.44909267	    -20.66147527	     14.96843549	    118.16747543	     89.95437384	      0.00000000	      0.00000000	    -55.68983508	     61.06262881	     19.30743012	     74.17715473	     89.95437384	      0.00000000	      0.00000000
      0.03000000	    -18.62148297	      7.22693590	    -14.83092023	     -2.00043181	      0.88815912	     -0.06047174	      9.71128249	     -5.06931552	     -8.83085513	    -26.88271894	     -0.46919196	     10.09981841	     -3.09865782	    -12.04970974	     60.28146677	      1.82534900	      4.10585874	    -80.04530436	     -1.39705411	     -3.33120819	     10.80773257	     -6.40581137	     -4.28829726	     -2.09419238	     11.85447076	     23.40154354	    -21.11955183	     16.06879893	    121.19080295	     89.95437384	      0.00000000	      0.00000000	    -56.43236542	     60.24844155	     19.72377835	     77.71345452	     89.95437384	      0.00000000	      0.00000000
      0.04000000	    -17.96632700	      8.27031881	    -13.65080983	     -1.95813334	      0.89559489	     -0.05765614	      5.19331510	     -7.50935967	    -11.46442112	    -23.58095737	     -0.41156535	      4.59024952	     -0.07648132	    -10.87242880	     60.28464702	      0.32320773	      4.56469857	    -73.56444093	     -1.28394171	     -4.29722246	     11.45706832	     -5.99313211	     -4.37047739	     -4.08625011	     11.40113958	     23.74177898	    -21.60030809	     17.10402251	    124.11577638	     89.95437384	      0.00000000	      0.00000000	    -56.71362330	     59.31206097	     19.79558077	     81.12088251	     89.95437384	      0.00000000	      0.00000000
      0.05000000	    -17.10086062	      9.05909920	    -12.34317357	     -1.91515386	      0.90321322	     -0.05465075	      0.57356698	     -9.50535052	    -14.79662827	    -20.56314592	     -0.35889460	     -1.56846310	      3.04333389	     -8.99457671	     59.35372148	     -1.13764933	      4.85814296	    -66.38848970	     -1.15869773	     -4.97982054	     11.53096723	     -5.36314562	     -4.81113409	     -5.84793400	     10.75329111	     23.56810241	    -22.24839278	     18.17851939	    126.81481194	     89.95437384	      0.00000000	      0.00000000	    -55.94911596	     58.29521114	     18.88446869	     84.26412439	     89.95437384	      0.00000000	      0.00000000
      0.06000000	    -16.14094296	      9.38112727	    -11.08925475	     -1.87170644	      0.91095639	     -0.05127445	     -3.84454220	    -10.73158447	    -18.50001297	    -17.99997267	     -0.31415879	     -6.99576641	      5.50056061	      8.76850870	     57.76794339	     -2.10480479	      5.26021810	    -59.00065286	     -1.02975565	     -4.90274855	     10.81723414	      0.87657532	     -5.52254432	     -7.08466561	     10.17101137	     22.79191834	    -23.04743116	     19.07859902	    129.24448797	     89.95437384	      0.00000000	      0.00000000	    -53.78877743	     57.11671979	     16.76189471	     86.67065069	     89.95437384	      0.00000000	      0.00000000
      0.07000000	    -15.02409503	      9.51462880	    -10.01858845	     -1.82808259	      0.91832328	     -0.04772028	     -8.31042505	    -11.39229513	    -22.01137544	    -14.72475187	     -0.25699540	    -18.21723580	      5.75515697	     11.13506973	     55.48113505	     -2.89370915	      5.77218676	    -51.14936589	     -0.89272485	     -5.81163358	      9.90603765	      1.64273875	     -6.46124103	     -8.07428491	      9.68578358	     21.46957329	    -23.92745556	     20.03252303	    131.00831878	     89.95437384	      0.00000000	      0.00000000	    -50.76069704	     55.71702066	     14.01754119	     88.56097103	     89.95437384	      0.00000000	      0.00000000
      0.08000000	    -14.04136027	      9.60040019	     -9.28400405	     -1.78443985	      0.92484593	     -0.04380802	    -12.16197544	    -11.72182418	    -23.71511051	    -12.34493542	     -0.21545977	    -26.23305879	      4.90169249	     12.50671080	     52.91425613	     -3.40169913	      6.43863919	    -43.00445319	     -0.75056930	     -7.82605366	      8.69335282	      2.75927935	     -7.22045741	     -8.99138693	      9.43238142	     19.52812545	    -24.58044201	     20.74737994	    132.11840681	     89.95437384	      0.00000000	      0.00000000	    -47.14635054	     54.01700098	     10.80493699	     90.54554260	     89.95437384	      0.00000000	      0.00000000
      0.09000000	    -13.32795320	      9.57806668	     -8.72568638	     -1.74169208	      0.93014409	     -0.03997816	    -14.82119806	    -11.74093237	    -23.61516963	    -12.32199221	     -0.21505933	    -27.94604419	      2.66248431	     13.06240852	     50.63318258	     -3.69889376	      7.60750210	    -35.77185062	     -0.62433657	     -8.31603953	      7.95844446	     11.53447044	     -7.71660485	     -9.74421513	      9.18761911	     17.08716634	    -25.01367227	     21.07266518	    132.41987112	     89.95437384	      0.00000000	      0.00000000	    -43.33908124	     51.71062680	      7.96442858	     92.46475014	     89.95437384	      0.00000000	      0.00000000
